<?xml version="1.0" encoding="UTF-8" standalone="no"?>
<svg width="40px" height="18px" viewBox="0 0 40 18" version="1.1" xmlns="http://www.w3.org/2000/svg" xmlns:xlink="http://www.w3.org/1999/xlink" xmlns:sketch="http://www.bohemiancoding.com/sketch/ns">
    <!-- Generator: Sketch Beta 3.2.1 (9971) - http://www.bohemiancoding.com/sketch -->
    <title>weibo</title>
    <desc>Created with Sketch Beta.</desc>
    <defs></defs>
    <g id="Page-1" stroke="none" stroke-width="1" fill="none" fill-rule="evenodd" sketch:type="MSPage">
        <g id="social" sketch:type="MSLayerGroup" fill="#FFFFFF">
            <g id="Page-1" sketch:type="MSShapeGroup">
                <g id="social">
                    <g id="qq" transform="translate(22.000000, 0.000000)">
                        <path d="M16.8440367,12.015 C16.4541284,9.84 14.8321101,8.415 14.8321101,8.415 C15.066055,6.435 14.2082569,6.09 14.2082569,6.09 C14.0366972,-0.015 8.60917431,0.09 8.48440367,0.09 C8.37522936,0.09 2.94770642,-0.015 2.76055046,6.09 C2.76055046,6.09 1.90275229,6.435 2.13669725,8.415 C2.13669725,8.415 0.514678899,9.84 0.124770642,12.015 C0.124770642,12.015 -0.0779816514,15.69 1.98073394,12.465 C1.98073394,12.465 2.44862385,13.695 3.29082569,14.79 C3.29082569,14.79 1.76238532,15.285 1.90275229,16.59 C1.90275229,16.59 1.8559633,18.045 5.14678899,17.94 C5.14678899,17.94 7.4706422,17.76 8.15688073,16.815 L8.45321101,16.815 L8.74954128,16.815 C9.45137615,17.76 11.759633,17.94 11.759633,17.94 C15.066055,18.045 15.0036697,16.59 15.0036697,16.59 C15.1284404,15.285 13.6155963,14.79 13.6155963,14.79 C14.4733945,13.695 14.9256881,12.465 14.9256881,12.465 C17.046789,15.69 16.8440367,12.015 16.8440367,12.015 L16.8440367,12.015 L16.8440367,12.015 Z"></path>
                    </g>
                    <g id="weibo" transform="translate(0.000000, 1.000000)">
                        <path d="M8.85714288,16.0242701 C13.7488079,16.0242701 17.6761213,13.4658974 17.6761213,10.3099844 C17.6761213,7.64387068 14.3373971,7.64387068 14.3373971,7.47177116 C14.3373971,7.29967163 16,5.7507792 14.3373971,4.78702346 C12.6747938,3.82326773 9.63368456,5.28853103 9.72513792,5.13122194 C11.0330921,2.88141296 9.16359752,2.17111524 8.21066456,2.17111524 C5.93895458,2.17111524 0,7.15407138 0,10.3099844 C0,13.4658974 3.9654775,16.0242701 8.85714288,16.0242701 L8.85714288,16.0242701 L8.85714288,16.0242701 Z M9.09643416,14.2738372 C12.2216342,13.8413763 14.5200558,11.8440387 14.2301034,9.81265883 C13.9401504,7.78127888 11.1716229,6.48509916 8.04642288,6.91756012 C4.92122292,7.35002112 2.62280125,9.34735859 2.91275375,11.3787385 C3.20270666,13.4101185 5.97123417,14.7062982 9.09643416,14.2738372 L9.09643416,14.2738372 L9.09643416,14.2738372 Z M8.51926712,13.7204819 C10.378025,13.3647345 11.6369517,11.8206602 11.3311592,10.2716951 C11.0253662,8.72273019 9.27065128,7.7554363 7.41189334,8.11118371 C5.55313542,8.46693115 4.29420834,10.0110054 4.60000125,11.5599704 C4.90579417,13.1089354 6.66050917,14.0762293 8.51926712,13.7204819 L8.51926712,13.7204819 L8.51926712,13.7204819 Z M8.57142872,10.881413 C8.88702,10.881413 9.14285712,10.6255757 9.14285712,10.3099844 C9.14285712,9.99439307 8.88702,9.73855579 8.57142872,9.73855579 C8.25583712,9.73855579 8,9.99439307 8,10.3099844 C8,10.6255757 8.25583712,10.881413 8.57142872,10.881413 L8.57142872,10.881413 L8.57142872,10.881413 Z M7.25946708,12.1849014 C7.8315125,11.9222559 8.1305308,11.3615387 7.92734292,10.9325045 C7.724155,10.5034703 7.09570417,10.3685855 6.52365834,10.6312309 C5.9516125,10.8938763 5.65259458,11.4545935 5.8557825,11.8836278 C6.05897042,12.3126621 6.68742125,12.4475468 7.25946708,12.1849014 L7.25946708,12.1849014 L7.25946708,12.1849014 Z M16.5058466,3.41022966 C15.4732517,2.48089378 14.1240538,2.81979487 14.1240538,2.81979487 C13.897745,2.8538256 13.7142858,3.06504279 13.7142858,3.28978461 L13.7142858,3.44931597 C13.7142858,3.67485341 13.89754,3.84408364 14.1342383,3.8373065 C14.1342383,3.8373065 15.2667325,3.68558859 15.81745,4.33956553 C16.3681675,4.99354252 15.9369634,6.05127807 15.9369634,6.05127807 C15.8709579,6.26550822 16.0056834,6.43917608 16.2320375,6.43917608 L16.6075571,6.43917604 C16.8365275,6.439176 17.0587866,6.26230839 17.0957308,6.03507536 C17.0957308,6.03507536 17.5384421,4.33956557 16.5058466,3.41022966 L16.5058466,3.41022966 L16.5058466,3.41022966 Z M18.4333583,1.55155799 C16.5402671,-0.238274186 13.7615954,0.0119469458 13.7615954,0.0119469458 C13.4198758,0.0187528411 13.1428571,0.297318577 13.1428571,0.636676353 L13.1428571,0.939151749 C13.1428571,1.2773744 13.4186008,1.53582994 13.7702771,1.52979015 C13.7702771,1.52979015 16.4370075,1.25116138 17.5728621,2.88141308 C18.7087166,4.51166486 18.2179521,6.55727064 18.2179521,6.55727064 C18.1658317,6.89124931 18.4013571,7.16199253 18.7483175,7.16199253 L19.0133146,7.16199253 C19.3583479,7.16199253 19.6775921,6.89203437 19.7143908,6.55504964 C19.7143908,6.55504964 20.32645,3.34139003 18.4333583,1.55155799 L18.4333583,1.55155799 L18.4333583,1.55155799 Z"></path>
                    </g>
                </g>
            </g>
        </g>
        <g id="row-1-shape-icons" sketch:type="MSLayerGroup" transform="translate(9.000000, 0.000000)"></g>
    </g>
</svg>